<?xml version="1.0" standalone="no"?>
<!DOCTYPE svg PUBLIC "-//W3C//DTD SVG 20010904//EN"
 "http://www.w3.org/TR/2001/REC-SVG-20010904/DTD/svg10.dtd">
<svg version="1.0" xmlns="http://www.w3.org/2000/svg"
 width="512.000000pt" height="512.000000pt" viewBox="0 0 512.000000 512.000000"
 preserveAspectRatio="xMidYMid meet">
<metadata>
Created by potrace 1.14, written by Peter Selinger 2001-2017
</metadata>
<g transform="translate(0.000000,512.000000) scale(0.100000,-0.100000)"
fill="#000000" stroke="none">
<path d="M2425 4580 c-198 -29 -305 -109 -362 -272 -23 -64 -26 -94 -30 -248
-3 -113 -1 -196 7 -235 6 -33 14 -73 16 -88 4 -23 40 -159 74 -282 4 -16 31
-106 60 -200 55 -178 130 -429 136 -455 2 -8 13 -51 24 -95 36 -141 58 -287
58 -390 -1 -147 -31 -216 -117 -271 -42 -27 -53 -29 -141 -29 -86 0 -101 3
-161 31 -135 64 -189 152 -214 349 -4 28 -9 64 -11 80 -2 17 -6 46 -9 65 -2
19 -10 55 -18 80 -12 42 -15 45 -47 46 -79 2 -145 -46 -175 -128 -21 -57 -26
-203 -11 -288 42 -238 163 -475 320 -623 84 -80 210 -146 356 -187 127 -35
254 -51 414 -51 156 0 177 1 311 28 193 37 312 102 332 180 13 51 6 203 -12
273 -2 8 -7 40 -10 70 -4 30 -10 75 -14 101 -13 82 -6 200 14 259 26 72 108
155 243 244 165 109 262 209 262 269 0 52 -89 134 -159 147 -90 16 -204 -91
-288 -270 -17 -38 -96 -150 -129 -184 -80 -82 -187 -101 -287 -52 -101 49
-149 142 -142 276 4 77 5 83 24 160 21 81 79 234 201 530 119 288 157 439 154
611 -4 220 -34 330 -116 421 -29 33 -138 105 -138 92 0 -2 -9 0 -20 6 -52 28
-284 45 -395 30z"/>
<path d="M3635 3825 c-46 -16 -87 -41 -120 -72 -38 -35 -75 -88 -75 -106 0 -7
-3 -17 -7 -21 -12 -11 -15 -38 -16 -112 -1 -120 64 -223 178 -282 68 -35 197
-37 265 -5 203 94 255 359 100 514 -67 67 -127 93 -220 94 -41 1 -88 -4 -105
-10z"/>
<path d="M1394 3609 c-79 -24 -153 -89 -191 -166 -22 -46 -27 -70 -26 -127 0
-82 4 -99 33 -156 31 -62 102 -126 164 -149 128 -48 262 -17 353 81 113 124
109 322 -10 439 -86 86 -206 114 -323 78z"/>
<path d="M2119 2646 c-4 -3 -107 -15 -142 -16 -16 0 -18 -7 -13 -67 15 -164
43 -279 74 -304 28 -22 86 -38 122 -35 30 3 38 32 34 131 -3 63 -39 268 -51
288 -4 8 -17 9 -24 3z"/>
<path d="M3688 2447 c-31 -23 -97 -71 -147 -106 -92 -64 -141 -116 -125 -130
5 -4 54 -23 109 -41 217 -71 429 -195 522 -307 189 -225 135 -483 -142 -685
-108 -78 -370 -191 -520 -224 -5 -1 -28 -6 -50 -12 -22 -6 -53 -14 -70 -17
-92 -17 -197 -34 -250 -41 -33 -3 -68 -8 -79 -10 -30 -5 -184 -15 -287 -18
-62 -2 -108 1 -127 10 -57 24 -82 93 -52 149 21 39 65 53 173 54 55 1 118 3
140 6 23 2 74 7 112 10 78 7 114 12 195 25 30 5 71 12 90 15 116 19 338 89
449 141 211 99 324 215 316 327 -10 127 -146 242 -410 349 -83 34 -116 41
-110 26 4 -13 9 -40 22 -133 9 -62 10 -239 1 -280 -12 -59 -39 -106 -91 -159
-140 -143 -412 -220 -777 -220 -116 0 -277 11 -291 20 -3 2 -21 6 -40 9 -98
17 -223 58 -336 110 -199 92 -355 251 -473 483 l-31 61 -47 -29 c-93 -57 -165
-141 -181 -209 -36 -163 189 -341 563 -447 120 -33 146 -53 153 -115 4 -38 1
-50 -21 -76 -15 -17 -39 -34 -54 -38 -53 -11 -294 66 -456 146 -182 91 -300
197 -361 324 -102 210 -16 420 243 592 45 30 82 57 82 60 0 3 -7 31 -15 62
-24 94 -33 174 -35 303 l0 27 -63 -26 c-497 -201 -780 -497 -786 -822 -9 -471
554 -869 1444 -1021 66 -11 145 -23 175 -26 30 -3 66 -7 79 -9 136 -23 736
-24 857 -1 11 2 48 7 84 10 36 4 75 8 87 10 12 3 43 8 70 12 55 8 78 12 113
19 14 3 34 7 46 9 66 13 243 59 329 86 335 106 634 276 784 447 81 92 163 235
177 307 2 11 7 34 10 51 4 16 6 64 6 106 -2 280 -226 552 -612 742 -58 29
-121 58 -140 65 -19 8 -44 18 -55 23 -17 8 -136 50 -139 49 -1 0 -26 -20 -58
-43z"/>
</g>
</svg>
